<svg width="62" height="62" viewBox="0 0 62 62" fill="none" xmlns="http://www.w3.org/2000/svg">
<path d="M30.9405 61.3863C47.7523 61.3863 61.381 47.7564 61.381 30.9432C61.381 14.1299 47.7523 0.5 30.9405 0.5C14.1286 0.5 0.5 14.1299 0.5 30.9432C0.5 47.7564 14.1286 61.3863 30.9405 61.3863Z" fill="#93D45A" stroke="#78AC49"/>
<path fill-rule="evenodd" clip-rule="evenodd" d="M53.0853 10.7906C47.7662 5.94815 40.6961 2.99603 32.9365 2.99603C16.4008 2.99603 2.99603 16.402 2.99603 32.9392C2.99603 40.7004 5.94863 47.772 10.7917 53.0918C4.7759 47.6149 1 39.7201 1 30.9432C1 14.406 14.4048 1 30.9405 1C39.7156 1 47.609 4.77539 53.0853 10.7906Z" fill="white" fill-opacity="0.3"/>
<path fill-rule="evenodd" clip-rule="evenodd" d="M27.0674 57.0129C43.6031 57.0129 57.0079 43.6069 57.0079 27.0698C57.0079 19.8178 54.4301 13.1679 50.1409 7.98669C56.7741 13.479 61 21.777 61 31.0622C61 47.5993 47.5952 61.0053 31.0595 61.0053C21.7752 61.0053 13.4779 56.7791 7.98608 50.1453C13.1668 54.4349 19.8161 57.0129 27.0674 57.0129Z" fill="#85BF51"/>
<ellipse rx="7.67175" ry="4.72104" transform="matrix(0.674591 -0.738191 0.738131 0.674657 12.6542 13.8407)" fill="white" fill-opacity="0.5"/>
</svg>
