<svg width="50" height="50" viewBox="0 0 20 20" fill="none" xmlns="http://www.w3.org/2000/svg">
<path d="M17.5858 0H1C0.447715 0 0 0.447715 0 1V17.5858C0 18.4767 1.07714 18.9229 1.7071 18.2929L18.2929 1.70711C18.9229 1.07714 18.4767 0 17.5858 0Z" fill="white"/>
<path d="M10.6938 4.19864C10.6357 4.1357 10.5666 4.08574 10.4904 4.05165C10.4142 4.01755 10.3325 4 10.25 4C10.1675 4 10.0858 4.01755 10.0097 4.05165C9.93351 4.08574 9.86438 4.1357 9.80628 4.19864L5.15003 9.20835L3.19378 7.0997C3.13345 7.03709 3.06224 6.98786 2.98421 6.95482C2.90617 6.92177 2.82284 6.90557 2.73898 6.90713C2.65512 6.90869 2.57236 6.92798 2.49544 6.9639C2.41851 6.99982 2.34893 7.05168 2.29065 7.11649C2.23238 7.18131 2.18656 7.25783 2.15581 7.34167C2.12505 7.42552 2.10997 7.51505 2.11142 7.60516C2.11287 7.69527 2.13083 7.78419 2.16426 7.86684C2.1977 7.94949 2.24595 8.02426 2.30628 8.08687L4.70628 10.6656C4.76438 10.7285 4.83351 10.7785 4.90967 10.8126C4.98583 10.8467 5.06752 10.8642 5.15003 10.8642C5.23254 10.8642 5.31423 10.8467 5.39039 10.8126C5.46655 10.7785 5.53568 10.7285 5.59378 10.6656L10.6938 5.18581C10.7572 5.12292 10.8078 5.0466 10.8425 4.96165C10.8771 4.8767 10.895 4.78497 10.895 4.69222C10.895 4.59948 10.8771 4.50775 10.8425 4.4228C10.8078 4.33785 10.7572 4.26153 10.6938 4.19864V4.19864Z" fill="#6C83EC"/>
</svg>
